<?xml version="1.0" encoding="utf-8"?>
<!-- Generator: Adobe Illustrator 15.0.0, SVG Export Plug-In  -->
<!DOCTYPE svg PUBLIC "-//W3C//DTD SVG 1.1//EN" "http://www.w3.org/Graphics/SVG/1.1/DTD/svg11.dtd" [
	<!ENTITY ns_flows "http://ns.adobe.com/Flows/1.0/">
]>
<svg version="1.1"
	 xmlns="http://www.w3.org/2000/svg" xmlns:xlink="http://www.w3.org/1999/xlink" xmlns:a="http://ns.adobe.com/AdobeSVGViewerExtensions/3.0/"
	 x="0px" y="0px" width="1265px" height="1125px" viewBox="-0.671 -0.678 1265 1125"
	 overflow="visible" enable-background="new -0.671 -0.678 1265 1125" xml:space="preserve">
<defs>
</defs>
<path fill="#FFFFFF" d="M0,64.876L101.373,46.18c77.208-14.238,128.716,24.161,142.955,101.365l41.232,223.56
	c16.341,88.618-21.512,139.333-102.072,154.19l-95.334,17.581L0,64.876z M144.747,465.798l31.555-5.82
	c38.265-7.057,49.569-28.577,42.018-69.53L175.85,160.176c-6.935-37.596-23.65-56.728-63.932-49.298l-31.557,5.818L144.747,465.798z
	"/>
<path fill="#FFFFFF" d="M282.191,5.116H394.15c82.603,0,122.881,48.47,122.881,142.678c0,55.979-15.701,96.94-60.076,121.516
	l75.095,221.868h-73.73l-64.85-207.532h-41.645v207.532h-69.633V5.116z M351.825,222.205h39.596
	c48.468,0,55.978-27.307,55.978-75.776c0-49.153-8.193-75.777-59.393-75.777h-36.182V222.205z"/>
<path fill="#FFFFFF" d="M644.624,49.005l57.804,5.096l65.444,493.717l-69.361-6.116l-11.231-105.844l-94.524-8.332L563.18,529.772
	l-69.362-6.115L644.624,49.005z M661.576,190.991l-1.357-0.12l-49.468,172.452l69.363,6.115L661.576,190.991z"/>
<path fill="#FFFFFF" d="M787.093,0l69.571,2.826l-9.005,221.685l1.365,0.056L959.663,7.009l69.574,2.827L928.433,200.462
	l100.72,295.832l-75.573-3.071l-70.372-218.759l-40.367,68.734l-5.9,145.288l-69.579-2.826L787.093,0z"/>
<path fill="#FFFFFF" d="M1056.799,42.802l206.92,15.894l-5.021,65.344l-137.491-10.561l-10.926,142.259l119.797,9.2l-5.021,65.344
	l-119.797-9.202L1094.33,463.34l137.496,10.562l-5.33,69.428l-206.929-15.894L1056.799,42.802z"/>
<path fill="#FFFFFF" d="M241.33,740.885l-68.252,13.792l-3.112-15.392c-6.354-31.449-25.01-54.84-59.807-47.811
	c-37.473,7.574-40.086,39.442-33.731,70.893c7.437,36.803,13.354,48.841,51.657,55.727l56.384,10.195
	c64.82,10.582,83.905,46.424,97.969,116.015c16.226,80.298-1.183,145.802-89.51,163.65
	c-66.246,13.388-126.302-25.319-139.282-89.556l-5.141-25.428l68.255-13.793l4.324,21.412c5.005,24.758,23.254,46.143,58.052,39.111
	c46.17-9.329,43.97-37.44,35.185-80.936c-10.279-50.854-17.926-57.667-54.084-64.288l-52.906-10.204
	c-63.751-12.191-86.984-47.891-99.02-107.445C-6.292,704.56,20.755,638.504,99.044,622.682
	c68.252-13.793,124.842,31.883,135.524,84.745L241.33,740.885z"/>
<path fill="#FFFFFF" d="M336.182,607.092l68.675,11.506l-34.402,205.352l84.836,14.212l34.401-205.353l68.673,11.505
	l-80.303,479.382l-68.677-11.505l35.753-213.434l-84.833-14.211l-35.755,213.433l-68.672-11.504L336.182,607.092z"/>
<path fill="#FFFFFF" d="M557.55,621.868l57.034-10.69l196.239,457.742l-68.437,12.828l-39.374-98.887l-93.27,17.482l-0.885,106.436
	l-68.439,12.829L557.55,621.868z M612.187,754.012l-1.344,0.251l-1.096,179.402l68.442-12.828L612.187,754.012z"/>
<path fill="#FFFFFF" d="M798.848,608.32l69.117,8.49l-27.048,220.214l1.354,0.167l128.006-207.814l69.112,8.487L921.486,819.406
	l76.268,303.058l-73.182-8.987l-52.299-223.768l-45.838,65.213l-17.729,144.325l-69.112-8.489L798.848,608.32z"/>
<path fill="#FFFFFF" d="M999.324,634.579l206.383-21.754l6.865,65.176l-137.133,14.454l14.953,141.891l119.489-12.594l6.866,65.176
	l-119.481,12.594l14.952,141.893l137.141-14.454l7.294,69.248l-206.379,21.753L999.324,634.579z"/>
</svg>
